<!DOCTYPE svg PUBLIC "-//W3C//DTD SVG 20010904//EN" "http://www.w3.org/TR/2001/REC-SVG-20010904/DTD/svg10.dtd">
<svg version="1.0" xmlns="http://www.w3.org/2000/svg" width="1200px" height="317px" viewBox="0 0 12000 3170" preserveAspectRatio="none">
<g id="layer101" fill="#000000" stroke="none">
 <path d="M0 1789 l0 -1371 23 5 c12 3 119 42 237 87 278 106 571 210 840 298 760 250 1517 433 2100 507 255 32 289 36 497 50 939 66 1718 -69 2658 -460 88 -37 295 -127 460 -200 510 -226 710 -309 945 -392 619 -218 1135 -306 1785 -307 462 0 838 38 1375 139 289 55 690 152 974 236 54 16 100 29 102 29 2 0 4 619 4 1375 l0 1375 -6000 0 -6000 0 0 -1371z"/>
 </g>

</svg>